<svg id="Layer_1" enable-background="new 0 0 512 512" height="512" viewBox="0 0 512 512" width="512" xmlns="http://www.w3.org/2000/svg"><g><g><path d="m260.402 373.074h-158.934v-37.346c0-25.992 21.07-47.062 47.062-47.062h64.81c25.992 0 47.062 21.071 47.062 47.062z" fill="#f7f5f0"/><path d="m180.935 316.411-13.855 5.553 8.661 14.009h5.193v-.003l.001.003h5.193l8.661-14.009z" fill="#17171d"/><path d="m194.789 373.074-8.659-37.101h-5.194l-.001.003v-.003h-5.194l-8.659 37.101z" fill="#17171d"/><path d="m223.696 289.823c-3.334-.749-6.796-1.157-10.356-1.157h-32.403v27.745h-.001l42.761 17.139v-43.727z" fill="#f7f5f0"/><path d="m138.174 289.823c3.334-.749 6.796-1.157 10.356-1.157h32.403v27.745h.001l-42.761 17.139v-43.727z" fill="#f7f5f0"/><circle cx="180.935" cy="293.137" fill="#eaa178" r="23.274"/><path d="m180.935 291.966c-34.431 0-62.342-27.911-62.342-62.342v-76.195h124.684v76.195c0 34.431-27.911 62.342-62.342 62.342z" fill="#ffcca6"/><path d="m118.593 198.214c17.951 3.763 36.646 1.398 53.095-6.716l36.956-18.229 34.633 24.945v-44.786h-124.684z" fill="#f4ad7d"/><path d="m153.227 221.263c-4.896 0-8.866-3.969-8.866-8.865v-6.985c0-4.896 3.969-8.865 8.866-8.865 4.896 0 8.866 3.969 8.866 8.865v6.985c-.001 4.896-3.97 8.865-8.866 8.865z" fill="#17171d"/><path d="m208.643 221.263c-4.896 0-8.866-3.969-8.866-8.865v-6.985c0-4.896 3.969-8.865 8.866-8.865 4.896 0 8.865 3.969 8.865 8.865v6.985c0 4.896-3.969 8.865-8.865 8.865z" fill="#17171d"/><path d="m180.934 243.478h-27.708c.001 11.438 11.515 22.876 27.709 22.876v-.001s0 0 0 .001c16.193 0 27.709-11.438 27.709-22.876z" fill="#e50707"/><path d="m156.258 253.628h49.354c1.739-2.82 2.784-5.897 2.991-9.004.012-.382.041-.764.041-1.147h-27.71-27.708c0 .383.028.764.041 1.146.207 3.107 1.252 6.185 2.991 9.005z" fill="#fff"/><path d="m208.644 160.355-36.956 18.229c-16.449 8.114-35.144 10.479-53.095 6.716l-13.476 8.219v-45.807c1.113-24.546 19.521-48.363 49.548-50.838 17.637-1.454 36.708-1.108 55.633 1.138 29.272 3.475 47.854 25.154 47.854 50.668v47.25l-14.876-10.63z" fill="#bf7349"/><path d="m210.298 98.013c-18.925-2.246-37.996-2.592-55.633-1.138-30.027 2.475-48.435 26.292-49.548 50.838v14.39c1.113-24.546 19.521-48.363 49.548-50.838 17.637-1.454 36.708-1.108 55.633 1.138 29.272 3.475 47.854 25.154 47.854 50.668v-14.39c.001-25.514-18.582-47.193-47.854-50.668z" fill="#e08d63"/><path d="m96 212.703c0 12.478 10.115 22.593 22.593 22.593v-45.186c-12.478 0-22.593 10.115-22.593 22.593z" fill="#eaa178"/><path d="m265.87 212.703c0 12.478-10.115 22.593-22.593 22.593v-45.186c12.478 0 22.593 10.115 22.593 22.593z" fill="#eaa178"/><path d="m130.301 373.074h42.366l-31.468-83.836c-3.805.595-7.453 1.656-10.898 3.105z" fill="#798589"/><path d="m130.301 306.682c4.985-2.096 10.402-3.369 16.086-3.624l-5.188-13.82c-3.805.595-7.453 1.656-10.898 3.105z" fill="#9eaaad"/><path d="m231.569 373.074h-42.366l31.468-83.836c3.805.595 7.453 1.656 10.898 3.105z" fill="#798589"/><path d="m231.569 306.682c-4.985-2.096-10.402-3.369-16.086-3.624l5.187-13.82c3.805.595 7.453 1.656 10.898 3.105v14.339z" fill="#9eaaad"/><path d="m212.425 344.573h35.552v13.918h-35.552z" fill="#f4aa40"/><path d="m375.507 416h-132.23v-186.904h90.219l42.011 42.163z" fill="#fff"/><path d="m375.507 416h-132.23v-186.904h90.219l42.011 42.163z" fill="#fff"/><path d="m243.277 403.361h132.23v12.639h-132.23z" fill="#e0d5d5"/><path d="m333.496 229.096v42.163h42.011z" fill="#fff"/><path d="m411.345 249.732c4.46 2.586 5.98 8.298 3.394 12.759l-64.807 111.783-16.153-9.365 64.807-111.783c2.586-4.46 8.299-5.98 12.759-3.394z" fill="#59c3f0"/><path d="m411.345 249.732c-3.613-2.095-8.045-1.494-10.974 1.179.193.095.386.186.575.296 4.46 2.586 5.98 8.298 3.394 12.759l-61.551 106.167 7.143 4.141 64.807-111.783c2.586-4.46 1.067-10.173-3.394-12.759z" fill="#96dcfa"/><path d="m349.932 374.274-20.59 16.903 4.437-26.267z" fill="#59c3f0"/><path d="m343.43 370.504-12.302 10.099-1.786 10.574 20.59-16.903z" fill="#96dcfa"/><path d="m343.276 329.595h18.671v42.89h-18.671z" fill="#402943" transform="matrix(-.865 -.502 .502 -.865 481.598 831.588)"/><path d="m352.988 332.206h8.257v42.89h-8.257z" fill="#684f6d" transform="matrix(-.865 -.502 .502 -.865 488.69 838.718)"/></g><g fill="#17171d"><path d="m153.227 221.263c4.896 0 8.865-3.969 8.865-8.866v-6.985c0-4.896-3.969-8.865-8.865-8.865-4.896 0-8.866 3.969-8.866 8.865v6.985c0 4.897 3.969 8.866 8.866 8.866z"/><path d="m208.643 221.263c4.896 0 8.866-3.969 8.866-8.866v-6.985c0-4.896-3.969-8.865-8.865-8.865-4.896 0-8.866 3.969-8.866 8.865v6.985c-.001 4.897 3.969 8.866 8.865 8.866z"/><path d="m212.644 243.477c0-2.209-1.791-4-4-4h-55.417c-1.061 0-2.078.421-2.829 1.172-.75.75-1.171 1.768-1.171 2.828.001 12.98 12.742 26.876 31.709 26.876 18.966 0 31.708-13.896 31.708-26.876zm-49.659 12.151h35.9c-4.176 3.96-10.403 6.725-17.95 6.725s-13.774-2.765-17.95-6.725zm41.065-8.151c-.418 1.419-1.056 2.815-1.886 4.151h-42.458c-.83-1.336-1.468-2.732-1.886-4.151z"/><path d="m269.093 259.172h42.73c2.209 0 4-1.791 4-4s-1.791-4-4-4h-42.73c-2.209 0-4 1.791-4 4s1.791 4 4 4z"/><path d="m269.093 277.322h42.73c2.209 0 4-1.791 4-4s-1.791-4-4-4h-42.73c-2.209 0-4 1.791-4 4s1.791 4 4 4z"/><path d="m269.093 329.549h42.73c2.209 0 4-1.791 4-4s-1.791-4-4-4h-42.73c-2.209 0-4 1.791-4 4s1.791 4 4 4z"/><path d="m315.823 342.049c0-2.209-1.791-4-4-4h-42.73c-2.209 0-4 1.791-4 4s1.791 4 4 4h42.73c2.209 0 4-1.791 4-4z"/><path d="m269.093 295.072h83.978c2.209 0 4-1.791 4-4s-1.791-4-4-4h-83.978c-2.209 0-4 1.791-4 4s1.791 4 4 4z"/><path d="m269.093 312.51h83.978c2.209 0 4-1.791 4-4s-1.791-4-4-4h-83.978c-2.209 0-4 1.791-4 4s1.791 4 4 4z"/><path d="m419.55 254.38c-.915-3.442-3.117-6.322-6.199-8.108h.001c-6.363-3.688-14.537-1.514-18.227 4.848l-15.618 26.939v-6.8c0-.025-.007-.05-.007-.076-.004-.237-.024-.473-.07-.705-.001-.004-.002-.007-.003-.011-.046-.226-.116-.445-.2-.66-.025-.063-.053-.122-.081-.184-.072-.161-.155-.315-.248-.466-.035-.057-.068-.114-.106-.169-.134-.194-.28-.381-.451-.552l-42.011-42.163c-.171-.171-.358-.319-.552-.454-.056-.04-.115-.073-.173-.109-.15-.094-.305-.177-.465-.249-.061-.028-.121-.057-.184-.082-.441-.173-.907-.266-1.381-.275-.027-.001-.052-.008-.079-.008h-66.678c1.991-3.768 3.052-7.986 3.052-12.394 0-7.29-2.95-13.902-7.718-18.711v-45.311c0-28.58-21.129-51.049-51.383-54.64-18.881-2.241-38.395-2.64-56.433-1.152-33.434 2.756-52.078 29.575-53.216 54.643-.002.06-.004.121-.004.181v44.972c-5.58 4.879-9.116 12.042-9.116 20.019 0 13.541 10.175 24.742 23.278 26.379 2.734 19.063 13.595 35.531 28.955 45.772-.086.007-.172.018-.257.025-.389.035-.777.071-1.163.114-.32.036-.64.08-.96.123-.417.055-.836.103-1.249.168-.008.001-.016 0-.023.001-.096.015-.191.038-.286.054-.832.136-1.658.291-2.476.466-.259.056-.515.119-.773.179-.698.161-1.391.335-2.078.524-.254.07-.507.142-.759.216-.731.214-1.454.444-2.171.69-.192.066-.385.128-.577.196-19.785 7.04-33.992 25.947-33.992 48.118v37.346c0 2.209 1.791 4 4 4h28.834 42.366 16.536 42.366 7.708v38.926c0 2.209 1.791 4 4 4h132.23c2.209 0 4-1.791 4-4v-84.761l38.693-66.741c1.784-3.082 2.264-6.675 1.348-10.118zm-82.054-15.602 28.378 28.482h-28.378zm-90.219-13.682v-30.553c1.404.309 2.742.79 4.009 1.397l4.541 3.245c.156.112.321.207.488.294 3.422 3.374 5.555 8.05 5.555 13.224 0 4.643-1.685 8.983-4.752 12.394h-9.841zm-30.852 129.396v-5.918h22.852v5.918zm-40.986 14.582-2.044-5.447 5.521-23.654h1.909.11.001s.001 0 .001 0h.117 1.903l5.521 23.654-2.045 5.447zm-15.058-40.116 5.065-2.03 6.024 9.744-3.142 13.46zm39.827-35.856c0 .012.001.024.001.036 0 10.627-8.646 19.274-19.274 19.274s-19.274-8.647-19.274-19.274c0-.012.001-.024.001-.036 6.103 1.856 12.572 2.864 19.273 2.864 6.702 0 13.17-1.008 19.273-2.864zm-27.224 30.805 7.951-3.186 7.95 3.186-4.987 8.066h-2.83c-.044-.001-.089 0-.133 0-.044 0-.087-.001-.131 0h-2.833zm-24.454-31.241h5.145c-.003.157-.014.314-.014.471 0 10.424 5.88 19.497 14.496 24.086l-10.588 4.244-10.794-28.756c.583-.024 1.167-.045 1.755-.045zm45.012 57.465-3.142-13.46 6.023-9.743 5.066 2.03zm10.759-28.664-10.588-4.244c8.615-4.589 14.496-13.662 14.496-24.086 0-.157-.011-.314-.014-.471h5.145c.587 0 1.173.014 1.757.038zm34.976-20.115v39.222h-3.708v-41.716c1.274.767 2.515 1.593 3.708 2.494zm0-9.595c-1.942-1.145-3.955-2.158-6.026-3.034-.045-.021-.085-.048-.131-.067-.071-.03-.144-.053-.214-.083-.809-.335-1.626-.652-2.451-.945-.295-.105-.593-.198-.889-.298-.547-.184-1.095-.359-1.648-.524-.384-.115-.768-.227-1.153-.333-.533-.146-1.07-.277-1.607-.405-.193-.046-.385-.103-.579-.146-.002 0-.003-.001-.005-.002s-.005-.001-.007-.001c-.36-.081-.721-.147-1.082-.22-.569-.116-1.14-.226-1.713-.322-.161-.027-.321-.065-.482-.091-.031-.005-.062-.002-.093-.006-.197-.031-.396-.053-.594-.082-.33-.047-.659-.095-.99-.137-.369-.045-.738-.083-1.108-.121-.287-.029-.573-.064-.861-.089 8.995-5.999 16.453-14.126 21.635-23.668v30.574zm-130.16-143.952c1.018-21.549 17.088-44.571 45.877-46.944 17.514-1.444 36.477-1.055 54.833 1.124 26.098 3.098 44.326 22.3 44.326 46.696v39.475l-8.538-6.101-34.633-24.945c-.693-.499-1.514-.754-2.338-.754-.603 0-1.208.136-1.769.413l-36.956 18.229c-15.573 7.682-33.51 9.95-50.505 6.389-.001 0-.003 0-.004 0-.067-.014-.138-.012-.205-.023-.191-.029-.381-.056-.573-.058-.013 0-.025-.004-.039-.004-.097 0-.189.022-.285.029-.15.011-.301.018-.449.045-.129.024-.251.065-.376.101-.121.035-.242.065-.36.112-.125.049-.241.113-.359.175-.084.043-.173.074-.254.123l-7.394 4.509v-38.591zm5.476 83.058c-8.336-1.835-14.593-9.281-14.593-18.16s6.257-16.325 14.593-18.16v35.081zm8-1.239v-39.514-.032c17.277 2.589 35.161-.16 50.865-7.906l34.799-17.166 31.02 22.343v2.761 38.986.001.528c0 32.17-26.172 58.342-58.342 58.342-32.17-.001-58.342-26.173-58.342-58.343zm-17.125 106.104c0-15.617 8.357-29.317 20.834-36.867v70.213h-20.834zm28.833 33.346v-73.981c.142-.05.285-.097.427-.145.489-.166.979-.326 1.472-.474.246-.073.494-.142.742-.211.446-.125.894-.245 1.343-.355.121-.029.242-.055.363-.084l26.834 71.491c.002.005.004.01.006.015l1.406 3.745h-32.593zm60.676 0 1.407-3.748c.001-.003.002-.006.003-.009l26.833-71.49c.248.059.495.117.742.18.263.067.525.136.787.208.375.103.748.21 1.119.322.329.101.655.208.982.316.24.079.48.157.718.24v45.479h-15.145c-2.209 0-4 1.791-4 4v13.918c0 2.209 1.791 4 4 4h15.145v6.582h-32.591zm40.592 0v-6.582h3.708v6.582zm135.938 42.926h-124.23v-53.503c0-.002 0-.003 0-.005s0-.003 0-.005v-13.909c0-.002 0-.003 0-.005 0-.001 0-.003 0-.005v-111.472h11.515c.01 0 .02.003.03.003s.021-.003.032-.003h70.643v38.163c0 2.209 1.791 4 4 4h38.011v16.599l-19.677 33.94-21.512 37.105c-.005.009-.007.019-.012.027-.111.195-.202.402-.28.616-.015.042-.032.083-.046.125-.061.186-.113.376-.146.572l-3.865 22.88h-13.84c-2.209 0-4 1.791-4 4s1.791 4 4 4h16.591c.206.032.412.054.619.054.212 0 .424-.02.633-.054h24.888c2.209 0 4-1.791 4-4s-1.791-4-4-4h-14.277l11.886-9.757c.045-.037.084-.079.127-.118.063-.056.125-.11.184-.171.066-.067.127-.139.188-.211.048-.056.098-.11.143-.169.079-.104.15-.213.218-.324.02-.032.043-.059.062-.092l18.113-31.243v66.962zm-28.571-37.158-7.87 6.46 1.696-10.04zm5.542-6.034-9.232-5.352 17.499-30.184 9.232 5.352zm62.8-108.323-41.288 71.218-9.232-5.353 41.288-71.217c1.477-2.546 4.75-3.417 7.292-1.94h.001c1.232.715 2.113 1.867 2.48 3.244.366 1.378.174 2.815-.541 4.048z"/></g></g></svg>